<svg width="16" height="16" viewBox="0 0 119 94" fill="none" xmlns="http://www.w3.org/2000/svg">
    <mask id="path-1-outside-1_3_6" maskUnits="userSpaceOnUse" x="-0.5" y="-0.125" width="119" height="94" fill="black">
        <rect fill="white" x="-0.5" y="-0.125" width="119" height="94"/>
        <path d="M0.5 66.75V60.625H9V66.125C9 72.7917 11.8333 77.75 17.5 81C19.9167 82.4167 22.125 83.125 24.125 83.125V91.5C19.5417 91.5 14.9167 89.75 10.25 86.25C3.83333 81.25 0.583333 74.75 0.5 66.75ZM30.25 91.5V83.125C33.1667 83.125 36.3333 81.8333 39.75 79.25C44.25 75.8333 46.5417 71.6667 46.625 66.75V3.375H55.125V66.75C55.125 76 50.9583 83 42.625 87.75C38.2917 90.25 34.1667 91.5 30.25 91.5ZM66 84.125C66 81.7917 67.0833 80.25 69.25 79.5C69.8333 79.25 70.4167 79.125 71 79.125C73.25 79.125 74.7917 80.2083 75.625 82.375C75.7917 82.9583 75.875 83.5417 75.875 84.125C75.875 86.4583 74.7917 88 72.625 88.75C72.125 88.9167 71.5833 89 71 89C68.6667 89 67.125 87.9583 66.375 85.875C66.125 85.2917 66 84.7083 66 84.125ZM66.125 47.875C66.125 45.625 67.1667 44.0833 69.25 43.25C69.9167 43 70.5 42.875 71 42.875C73.3333 42.875 74.875 43.9583 75.625 46.125C75.875 46.7083 76 47.2917 76 47.875C76 50.125 74.9167 51.6667 72.75 52.5C72.1667 52.6667 71.5833 52.75 71 52.75C68.75 52.75 67.25 51.7083 66.5 49.625C66.25 49.0417 66.125 48.4583 66.125 47.875ZM87.625 92.875L109.5 0.5H117.5L95.75 92.875H87.625Z"/>
    </mask>
    <path d="M0.5 66.75V60.625H9V66.125C9 72.7917 11.8333 77.75 17.5 81C19.9167 82.4167 22.125 83.125 24.125 83.125V91.5C19.5417 91.5 14.9167 89.75 10.25 86.25C3.83333 81.25 0.583333 74.75 0.5 66.75ZM30.25 91.5V83.125C33.1667 83.125 36.3333 81.8333 39.75 79.25C44.25 75.8333 46.5417 71.6667 46.625 66.75V3.375H55.125V66.75C55.125 76 50.9583 83 42.625 87.75C38.2917 90.25 34.1667 91.5 30.25 91.5ZM66 84.125C66 81.7917 67.0833 80.25 69.25 79.5C69.8333 79.25 70.4167 79.125 71 79.125C73.25 79.125 74.7917 80.2083 75.625 82.375C75.7917 82.9583 75.875 83.5417 75.875 84.125C75.875 86.4583 74.7917 88 72.625 88.75C72.125 88.9167 71.5833 89 71 89C68.6667 89 67.125 87.9583 66.375 85.875C66.125 85.2917 66 84.7083 66 84.125ZM66.125 47.875C66.125 45.625 67.1667 44.0833 69.25 43.25C69.9167 43 70.5 42.875 71 42.875C73.3333 42.875 74.875 43.9583 75.625 46.125C75.875 46.7083 76 47.2917 76 47.875C76 50.125 74.9167 51.6667 72.75 52.5C72.1667 52.6667 71.5833 52.75 71 52.75C68.75 52.75 67.25 51.7083 66.5 49.625C66.25 49.0417 66.125 48.4583 66.125 47.875ZM87.625 92.875L109.5 0.5H117.5L95.75 92.875H87.625Z" fill="url(#paint0_linear_3_6)"/>
    <path d="M0.5 66.75H-2.71797e-05L2.71797e-05 66.7552L0.5 66.75ZM0.5 60.625V60.125H0V60.625H0.5ZM9 60.625H9.5V60.125H9V60.625ZM17.5 81L17.7529 80.5686L17.7488 80.5663L17.5 81ZM24.125 83.125H24.625V82.625H24.125V83.125ZM24.125 91.5V92H24.625V91.5H24.125ZM10.25 86.25L9.94262 86.6445L9.95 86.65L10.25 86.25ZM30.25 91.5H29.75V92H30.25V91.5ZM30.25 83.125V82.625H29.75V83.125H30.25ZM39.75 79.25L40.0516 79.6488L40.0524 79.6482L39.75 79.25ZM46.625 66.75L47.125 66.7585V66.75H46.625ZM46.625 3.375V2.875H46.125V3.375H46.625ZM55.125 3.375H55.625V2.875H55.125V3.375ZM42.625 87.75L42.3774 87.3156L42.3751 87.3169L42.625 87.75ZM0.5 66.75H1V60.625H0.5H0V66.75H0.5ZM0.5 60.625V61.125H9V60.625V60.125H0.5V60.625ZM9 60.625H8.5V66.125H9H9.5V60.625H9ZM9 66.125H8.5C8.5 72.9663 11.4253 78.0924 17.2512 81.4337L17.5 81L17.7488 80.5663C12.2414 77.4076 9.5 72.6171 9.5 66.125H9ZM17.5 81L17.2471 81.4314C19.7113 82.8758 22.0074 83.625 24.125 83.625V83.125V82.625C22.2426 82.625 20.1221 81.9575 17.7529 80.5686L17.5 81ZM24.125 83.125H23.625V91.5H24.125H24.625V83.125H24.125ZM24.125 91.5V91C19.6763 91 15.1539 89.3029 10.55 85.85L10.25 86.25L9.95 86.65C14.6794 90.1971 19.4071 92 24.125 92V91.5ZM10.25 86.25L10.5573 85.8556C4.25845 80.9474 1.08169 74.5895 0.999973 66.7448L0.5 66.75L2.71797e-05 66.7552C0.0849776 74.9105 3.40822 81.5526 9.94268 86.6444L10.25 86.25ZM30.25 91.5H30.75V83.125H30.25H29.75V91.5H30.25ZM30.25 83.125V83.625C33.316 83.625 36.5871 82.2683 40.0516 79.6488L39.75 79.25L39.4484 78.8512C36.0796 81.3984 33.0174 82.625 30.25 82.625V83.125ZM39.75 79.25L40.0524 79.6482C44.6539 76.1544 47.0386 71.8526 47.1249 66.7585L46.625 66.75L46.1251 66.7415C46.0447 71.4808 43.8461 75.5122 39.4476 78.8518L39.75 79.25ZM46.625 66.75H47.125V3.375H46.625H46.125V66.75H46.625ZM46.625 3.375V3.875H55.125V3.375V2.875H46.625V3.375ZM55.125 3.375H54.625V66.75H55.125H55.625V3.375H55.125ZM55.125 66.75H54.625C54.625 75.8123 50.5618 82.6505 42.3774 87.3156L42.625 87.75L42.8726 88.1844C51.3549 83.3495 55.625 76.1877 55.625 66.75H55.125ZM42.625 87.75L42.3751 87.3169C38.0971 89.785 34.0578 91 30.25 91V91.5V92C34.2755 92 38.4862 90.715 42.8749 88.1831L42.625 87.75ZM69.25 79.5L69.4136 79.9725L69.4305 79.9666L69.447 79.9596L69.25 79.5ZM75.625 82.375L76.1058 82.2376L76.0997 82.2163L76.0917 82.1955L75.625 82.375ZM72.625 88.75L72.7831 89.2244L72.7886 89.2225L72.625 88.75ZM66.375 85.875L66.8454 85.7056L66.8404 85.6917L66.8346 85.678L66.375 85.875ZM69.25 43.25L69.0744 42.7817L69.0643 42.7858L69.25 43.25ZM75.625 46.125L75.1525 46.2886L75.1584 46.3055L75.1654 46.322L75.625 46.125ZM72.75 52.5L72.8874 52.9808L72.9087 52.9747L72.9295 52.9667L72.75 52.5ZM66.5 49.625L66.9704 49.4556L66.9654 49.4417L66.9596 49.428L66.5 49.625ZM66 84.125H66.5C66.5 83.0364 66.7519 82.1746 67.2216 81.5062C67.6908 80.8385 68.4075 80.3207 69.4136 79.9725L69.25 79.5L69.0864 79.0275C67.9258 79.4293 67.0176 80.0573 66.4034 80.9313C65.7898 81.8045 65.5 82.8802 65.5 84.125H66ZM69.25 79.5L69.447 79.9596C69.9736 79.7339 70.4901 79.625 71 79.625V79.125V78.625C70.3432 78.625 69.6931 78.7661 69.053 79.0404L69.25 79.5ZM71 79.125V79.625C72.0425 79.625 72.8849 79.8748 73.5563 80.3466C74.2288 80.8192 74.769 81.5421 75.1583 82.5545L75.625 82.375L76.0917 82.1955C75.6477 81.0412 75.0004 80.1391 74.1312 79.5284C73.2609 78.9168 72.2075 78.625 71 78.625V79.125ZM75.625 82.375L75.1442 82.5124C75.2987 83.0528 75.375 83.59 75.375 84.125H75.875H76.375C76.375 83.4934 76.2847 82.8638 76.1058 82.2376L75.625 82.375ZM75.875 84.125H75.375C75.375 85.2136 75.1231 86.0754 74.6534 86.7438C74.1842 87.4115 73.4675 87.9293 72.4614 88.2775L72.625 88.75L72.7886 89.2225C73.9492 88.8207 74.8574 88.1927 75.4716 87.3187C76.0852 86.4455 76.375 85.3698 76.375 84.125H75.875ZM72.625 88.75L72.4669 88.2757C72.023 88.4236 71.5353 88.5 71 88.5V89V89.5C71.6314 89.5 72.227 89.4097 72.7831 89.2243L72.625 88.75ZM71 89V88.5C69.9077 88.5 69.043 88.2567 68.3737 87.8045C67.7065 87.3536 67.1915 86.667 66.8454 85.7056L66.375 85.875L65.9046 86.0444C66.3085 87.1663 66.9394 88.0422 67.8138 88.633C68.6861 89.2224 69.759 89.5 71 89.5V89ZM66.375 85.875L66.8346 85.678C66.6089 85.1514 66.5 84.6349 66.5 84.125H66H65.5C65.5 84.7818 65.6411 85.4319 65.9154 86.072L66.375 85.875ZM66.125 47.875H66.625C66.625 46.8286 66.8663 45.9834 67.3205 45.3112C67.7747 44.6391 68.4675 44.1015 69.4357 43.7142L69.25 43.25L69.0643 42.7858C67.9491 43.2318 67.0795 43.8818 66.492 44.7513C65.9045 45.6208 65.625 46.6714 65.625 47.875H66.125ZM69.25 43.25L69.4256 43.7182C70.058 43.481 70.5796 43.375 71 43.375V42.875V42.375C70.4204 42.375 69.7754 42.519 69.0744 42.7818L69.25 43.25ZM71 42.875V43.375C72.0886 43.375 72.9504 43.6269 73.6188 44.0966C74.2865 44.5658 74.8043 45.2825 75.1525 46.2886L75.625 46.125L76.0975 45.9614C75.6957 44.8008 75.0677 43.8926 74.1937 43.2784C73.3205 42.6648 72.2448 42.375 71 42.375V42.875ZM75.625 46.125L75.1654 46.322C75.3911 46.8486 75.5 47.3651 75.5 47.875H76H76.5C76.5 47.2182 76.3589 46.5681 76.0846 45.928L75.625 46.125ZM76 47.875H75.5C75.5 48.9175 75.2502 49.7599 74.7784 50.4313C74.3058 51.1038 73.5829 51.644 72.5705 52.0333L72.75 52.5L72.9295 52.9667C74.0838 52.5227 74.9859 51.8754 75.5966 51.0062C76.2082 50.1359 76.5 49.0825 76.5 47.875H76ZM72.75 52.5L72.6126 52.0192C72.0722 52.1737 71.535 52.25 71 52.25V52.75V53.25C71.6316 53.25 72.2612 53.1597 72.8874 52.9808L72.75 52.5ZM71 52.75V52.25C69.953 52.25 69.1213 52.0085 68.4727 51.5581C67.8248 51.1081 67.3179 50.4207 66.9704 49.4556L66.5 49.625L66.0296 49.7944C66.4321 50.9126 67.0502 51.7877 67.9023 52.3794C68.7537 52.9707 69.797 53.25 71 53.25V52.75ZM66.5 49.625L66.9596 49.428C66.7339 48.9014 66.625 48.3849 66.625 47.875H66.125H65.625C65.625 48.5318 65.7661 49.1819 66.0404 49.822L66.5 49.625ZM87.625 92.875L87.1385 92.7598L86.9928 93.375H87.625V92.875ZM109.5 0.5V0H109.105L109.013 0.384783L109.5 0.5ZM117.5 0.5L117.987 0.614594L118.131 0H117.5V0.5ZM95.75 92.875V93.375H96.1459L96.2367 92.9896L95.75 92.875ZM87.625 92.875L88.1115 92.9902L109.987 0.615217L109.5 0.5L109.013 0.384783L87.1385 92.7598L87.625 92.875ZM109.5 0.5V1H117.5V0.5V0H109.5V0.5ZM117.5 0.5L117.013 0.385406L95.2633 92.7604L95.75 92.875L96.2367 92.9896L117.987 0.614594L117.5 0.5ZM95.75 92.875V92.375H87.625V92.875V93.375H95.75V92.875Z" fill="#0D1117" mask="url(#path-1-outside-1_3_6)"/>
    <defs>
        <linearGradient id="paint0_linear_3_6" x1="124.5" y1="-9.125" x2="-3.5" y2="118.875" gradientUnits="userSpaceOnUse">
            <stop stop-color="#0FFFC7"/>
            <stop offset="1" stop-color="#0B0F14"/>
        </linearGradient>
    </defs>
</svg>
